<?xml version="1.0" encoding="UTF-8"?>
<!DOCTYPE svg PUBLIC '-//W3C//DTD SVG 1.0//EN'
    'http://www.w3.org/TR/2001/REC-SVG-20010904/DTD/svg10.dtd' >

<svg style="stroke-dasharray:none; shape-rendering:auto; font-family:'Dialog'; text-rendering:auto; fill-opacity:1; color-interpolation:auto; color-rendering:auto; font-size:12px; fill:black; stroke:black; image-rendering:auto; stroke-miterlimit:10; stroke-linecap:square; stroke-linejoin:miter; font-style:normal; stroke-width:1; stroke-dashoffset:0; font-weight:normal; stroke-opacity:1;"
	 width="300pt" height="300pt" viewBox="0 0 300 300"
     xmlns="http://www.w3.org/2000/svg" contentScriptType="text/ecmascript"
     preserveAspectRatio="xMidYMid meet"
     xmlns:xlink="http://www.w3.org/1999/xlink" zoomAndPan="magnify"
     version="1.0" contentStyleType="text/css">
    <!--Generated by the Batik Graphics2D SVG Generator-->
    <defs id="genericDefs"/>
    <g>
        <defs id="defs1">
            <clipPath clipPathUnits="userSpaceOnUse" id="clipPath1">
                <path d="M0 0 L490 0 L490 490 L0 490 L0 0 Z"/>
            </clipPath>
            <clipPath clipPathUnits="userSpaceOnUse" id="clipPath2">
                <path d="M9 6.0167 L9 483 L488.9937 483 L488.9937 6.0167 Z"/>
            </clipPath>
            <clipPath clipPathUnits="userSpaceOnUse" id="clipPath3">
                <path d="M358 270 L358 285 L375 285 L375 270 Z"/>
            </clipPath>
            <clipPath clipPathUnits="userSpaceOnUse" id="clipPath4">
                <path d="M6 5 L496 5 L496 495 L6 495 L6 5 Z"/>
            </clipPath>
            <clipPath clipPathUnits="userSpaceOnUse" id="clipPath5">
                <path d="M7 258 L7 274 L22 274 L22 258 Z"/>
            </clipPath>
            <clipPath clipPathUnits="userSpaceOnUse" id="clipPath6">
                <path d="M125 258 L125 274 L140 274 L140 258 Z"/>
            </clipPath>
            <clipPath clipPathUnits="userSpaceOnUse" id="clipPath7">
                <path d="M194 120 L194 135 L213 135 L213 120 Z"/>
            </clipPath>
            <clipPath clipPathUnits="userSpaceOnUse" id="clipPath8">
                <path d="M224 478 L224 494 L239 494 L239 478 Z"/>
            </clipPath>
            <clipPath clipPathUnits="userSpaceOnUse" id="clipPath9">
                <path d="M224 360 L224 376 L239 376 L239 360 Z"/>
            </clipPath>
        </defs>
        <g transform="translate(6,5)"
           style="stroke-linecap:butt; text-rendering:optimizeLegibility; image-rendering:optimizeQuality; color-rendering:optimizeQuality; font-family:'Times New Roman'; stroke-linejoin:round; color-interpolation:linearRGB; stroke-width:1.5;">
            <path d="M138.1767 287.3068 L138.4061 287.8929 L139.3142 290.1267 L140.4448 292.7385 L140.5382 292.9467 L140.6543 293.204 L141.8517 295.7665 L143.015 298.1122 L143.2581 298.5864 L143.4922 299.038 L144.7612 301.4063 L146.3302 304.1665 L146.3653 304.2263 L146.4145 304.3099 L148.075 307.0461 L149.1682 308.76 L149.8961 309.866 L151.4343 312.1177 L151.8347 312.6859 L152.0061 312.927 L153.8981 315.5059 L154.8441 316.742 L156.0947 318.3257 L157.6821 320.2585 L158.4341 321.1456 L160.52 323.5167 L160.9279 323.9655 L163.358 326.5474 L163.5895 326.7855 L166.196 329.3752 L166.4355 329.6053 L169.0339 332.02 L169.4857 332.4252 L171.8719 334.4979 L172.7647 335.2451 L174.7098 336.8224 L176.3037 338.0651 L177.5478 339.005 L180.1431 340.8849 L180.3858 341.0553 L180.9576 341.4531 L183.2237 342.9815 L184.3369 343.7048 L186.0617 344.791 L188.8154 346.441 L188.8997 346.4899 L188.9597 346.5247 L191.7376 348.0837 L194.1211 349.3446 L194.5756 349.5773 L195.0529 349.8189 L197.4135 350.9747 L199.9925 352.1646 L200.2515 352.2799 L200.461 352.3727 L203.0895 353.4961 L205.3376 354.3984 L205.9274 354.6263 L206.8734 354.9844 L208.7654 355.6732 L209.834 356.0463 L211.6033 356.639 L214.0395 357.4051 L214.4413 357.5259 L215.3873 357.8044 L217.2793 358.3358 L218.0121 358.5325 L220.1172 359.0701 L221.7923 359.4688 L222.9552 359.7305 L225.4094 360.2429 L225.7932 360.3181 L227.4287 360.6242 L228.6311 360.8342 L228.8855 360.877 L231.4691 361.2796 L232.2379 361.3882 L234.307 361.6552 L235.4804 361.7902 L237.145 361.9615 L238.6241 362.0939 L239.983 362.1992 L241.6782 362.3087 L242.8209 362.3687 L244.6503 362.442 L245.6589 362.4703 L247.5471 362.5004 L248.4969 362.5042 L250.3739 362.4894 L251.3348 362.4703 L253.1358 362.4137 L254.1728 362.3687 L255.8367 362.2776 L257.0107 362.1992 L258.4805 362.0847 L259.8487 361.9615 L261.0703 361.8381 L262.6866 361.6552 L263.609 361.5407 L265.5247 361.2796 L266.0992 361.1951 L268.3626 360.8342 L268.543 360.8035 L269.565 360.6242 L270.9427 360.368 L271.2005 360.3181 L273.3 359.8904 L274.0385 359.7305 L275.6165 359.3723 L276.8765 359.0701 L277.894 358.8154 L279.7144 358.3358 L280.1337 358.2209 L281.6064 357.8044 L282.3368 357.5901 L282.5524 357.5259 L284.5046 356.9242 L285.3904 356.639 L286.6381 356.2242 L288.2283 355.6732 L288.7383 355.4911 L290.1203 354.9844 L290.806 354.7258 L291.0663 354.6263 L292.8421 353.929 L293.9043 353.4961 L294.8474 353.1017 L296.7422 352.2799 L296.8224 352.2443 L297.0012 352.1646 L298.768 351.3575 L299.5802 350.9747 L300.6846 350.442 L302.4182 349.5773 L302.5728 349.4984 L302.8726 349.3446 L304.4332 348.5269 L305.2561 348.0837 L306.2661 347.5283 L308.034 346.5247 L308.0719 346.5027 L308.0941 346.4899 L309.8512 345.4507 L310.932 344.791 L311.6042 344.3727 L312.6568 343.7048 L313.3312 343.2688 L313.77 342.9815 L315.0325 342.1394 L316.6079 341.0553 L316.7085 340.9848 L316.8506 340.8849 L318.3593 339.8052 L319.4459 339.005 L319.9851 338.6008 L320.69 338.0651 L321.5862 337.3718 L322.2839 336.8224 L323.1627 336.1183 L324.229 335.2451 L324.7147 334.8406 L325.1218 334.4979 L326.2423 333.5386 L327.508 332.4252 L327.7458 332.2125 L327.9598 332.02 L329.225 330.8625 L330.5582 329.6053 L330.6801 329.4884 L330.7978 329.3752 L332.1111 328.0905 L333.4042 326.7855 L333.5181 326.6685 L333.6357 326.5474 L334.9009 325.2227 L336.0659 323.9655 L336.2596 323.7528 L336.4737 323.5167 L337.5942 322.259 L338.5596 321.1456 L338.9045 320.7411 L339.3116 320.2585 L340.1904 319.1989 L340.899 318.3257 L341.4519 317.6325 L342.1496 316.742 L342.6888 316.0416 L343.0956 315.5059 L343.9009 314.4261 L344.9876 312.927 L345.0881 312.7858 L345.159 312.6859 L346.2501 311.1205 L347.0976 309.866 L347.3867 309.43 L347.8255 308.76 L348.4977 307.714 L348.9187 307.0461 L349.5827 305.9722 L350.6285 304.2263 L350.6414 304.2043 L350.6635 304.1665 L351.6735 302.4099 L352.2325 301.4063 L352.6785 300.5886 L353.5015 299.038 L353.6562 298.7402 L353.7356 298.5864 L354.6059 296.864 L355.142 295.7665 L355.5273 294.9595 L356.3394 293.204 L356.4196 293.0264 L356.4555 292.9467 L357.2825 291.0638 L357.6796 290.1267 L358.1152 289.0714 L358.817 287.3068 L358.9171 287.0482 L359.1774 286.3669 L359.6873 284.9937 L359.8705 284.4869 L360.4251 282.9069 L360.8426 281.6671 L361.1296 280.7869 L361.7351 278.8471 L361.7998 278.6329 L362.0154 277.9072 L362.4346 276.4438 L362.5501 276.0273 L363.0329 274.2184 L363.2892 273.2073 L363.5934 271.9554 L363.9539 270.3875 L364.1147 269.6536 L364.5453 267.5676 L364.5954 267.3113 L364.8533 265.9424 L365.0338 264.9269 L365.0646 264.7477 L365.4278 262.4986 L365.5129 261.9277 L365.7757 260.0243 L365.8908 259.1078 L366.0749 257.5018 L366.1991 256.2879 L366.3231 254.9285 L366.4384 253.468 L366.5173 252.3015 L366.609 250.6481 L366.6542 249.6177 L366.7112 247.8282 L366.7304 246.8735 L366.7453 245.0083 L366.7415 244.0646 L366.7112 242.1885 L366.6827 241.1863 L366.609 239.3685 L366.5485 238.2331 L366.4384 236.5486 L366.3324 235.1984 L366.1991 233.7288 L366.0267 232.0748 L365.8908 230.9089 L365.6222 228.8529 L365.5129 228.0889 L365.1077 225.5218 L365.0646 225.269 L364.8533 224.0743 L364.5453 222.4492 L364.4695 222.0678 L363.9539 219.6292 L363.6904 218.4738 L363.2892 216.8094 L362.7482 214.7177 L362.5501 213.9894 L362.0154 212.1095 L361.7351 211.1695 L361.6135 210.7703 L360.8426 208.3496 L360.246 206.5916 L359.8705 205.5298 L359.1774 203.6498 L358.817 202.7099 L358.5876 202.1238 L357.6796 199.89 L356.5489 197.2782 L356.4555 197.07 L356.3394 196.8127 L355.142 194.2502 L353.9788 191.9045 L353.7356 191.4302 L353.5015 190.9787 L352.2325 188.6104 L350.6635 185.8502 L350.6285 185.7905 L350.5793 185.7067 L348.9187 182.9706 L347.8255 181.2567 L347.0976 180.1506 L345.5594 177.899 L345.159 177.3307 L344.9876 177.0897 L343.0956 174.5109 L342.1496 173.2747 L340.899 171.6909 L339.3116 169.7582 L338.5596 168.8711 L336.4737 166.5 L336.0659 166.0511 L333.6357 163.4693 L333.4042 163.2312 L330.7978 160.6414 L330.5582 160.4113 L327.9598 157.9967 L327.508 157.5915 L325.1218 155.5188 L324.229 154.7716 L322.2839 153.1942 L320.69 151.9517 L319.4459 151.0117 L316.8506 149.1317 L316.6079 148.9614 L316.0361 148.5636 L313.77 147.0351 L312.6568 146.3119 L310.932 145.2257 L308.1783 143.5757 L308.0941 143.5268 L308.034 143.4919 L305.2561 141.933 L302.8726 140.6721 L302.4182 140.4394 L301.9409 140.1978 L299.5802 139.042 L297.0012 137.8522 L296.7422 137.7368 L296.5327 137.644 L293.9043 136.5205 L291.6561 135.6183 L291.0663 135.3903 L290.1203 135.0322 L288.2283 134.3435 L287.1597 133.9704 L285.3904 133.3777 L282.9542 132.6116 L282.5524 132.4908 L281.6064 132.2123 L279.7144 131.681 L278.9816 131.4841 L276.8765 130.9466 L275.2014 130.5479 L274.0385 130.2862 L271.5844 129.7738 L271.2005 129.6985 L269.565 129.3925 L268.3626 129.1825 L268.1082 129.1397 L265.5247 128.7371 L264.7558 128.6285 L262.6866 128.3615 L261.5133 128.2265 L259.8487 128.0552 L258.3696 127.9228 L257.0107 127.8175 L255.3155 127.708 L254.1728 127.6479 L252.3434 127.5747 L251.3348 127.5464 L249.4467 127.5163 L248.4969 127.5125 L246.6198 127.5273 L245.6589 127.5464 L243.8579 127.603 L242.8209 127.6479 L241.157 127.7391 L239.983 127.8175 L238.5132 127.932 L237.145 128.0552 L235.9234 128.1786 L234.307 128.3615 L233.3847 128.476 L231.4691 128.7371 L230.8946 128.8216 L228.6311 129.1825 L228.4507 129.2132 L227.4287 129.3925 L226.051 129.6487 L225.7932 129.6985 L223.6938 130.1263 L222.9552 130.2862 L221.3772 130.6444 L220.1172 130.9466 L219.0997 131.2013 L217.2793 131.681 L216.86 131.7958 L215.3873 132.2123 L214.6569 132.4266 L214.4413 132.4908 L212.4891 133.0925 L211.6033 133.3777 L210.3556 133.7924 L208.7654 134.3435 L208.2554 134.5256 L206.8734 135.0322 L206.1877 135.2909 L205.9274 135.3903 L204.1516 136.0876 L203.0895 136.5205 L202.1463 136.9151 L200.2515 137.7368 L200.1713 137.7724 L199.9925 137.8522 L198.2257 138.6591 L197.4135 139.042 L196.3091 139.5746 L194.5756 140.4394 L194.4209 140.5183 L194.1211 140.6721 L192.5605 141.4897 L191.7376 141.933 L190.7276 142.4884 L188.9597 143.4919 L188.9218 143.5139 L188.8997 143.5268 L187.1425 144.5659 L186.0617 145.2257 L185.3896 145.644 L184.3369 146.3119 L183.6626 146.7479 L183.2237 147.0351 L181.9612 147.8773 L180.3858 148.9614 L180.2852 149.0319 L180.1431 149.1317 L178.6345 150.2115 L177.5478 151.0117 L177.0086 151.4159 L176.3037 151.9517 L175.4075 152.6449 L174.7098 153.1942 L173.8311 153.8984 L172.7647 154.7716 L172.2791 155.1761 L171.8719 155.5188 L170.7514 156.4781 L169.4857 157.5915 L169.248 157.8041 L169.0339 157.9967 L167.7687 159.1542 L166.4355 160.4113 L166.3136 160.5283 L166.196 160.6414 L164.8826 161.9262 L163.5895 163.2312 L163.4756 163.3482 L163.358 163.4693 L162.0928 164.794 L160.9279 166.0511 L160.7341 166.2638 L160.52 166.5 L159.3995 167.7577 L158.4341 168.8711 L158.0892 169.2756 L157.6821 169.7582 L156.8033 170.8178 L156.0947 171.6909 L155.5418 172.3842 L154.8441 173.2747 L154.3049 173.9751 L153.8981 174.5109 L153.0928 175.5906 L152.0061 177.0897 L151.9056 177.2309 L151.8347 177.3307 L150.7436 178.8961 L149.8961 180.1506 L149.607 180.5867 L149.1682 181.2567 L148.4961 182.3027 L148.075 182.9706 L147.4111 184.0445 L146.3653 185.7905 L146.3524 185.8124 L146.3302 185.8502 L145.3203 187.6068 L144.7612 188.6104 L144.3152 189.428 L143.4922 190.9787 L143.3376 191.2765 L143.2581 191.4302 L142.3878 193.1527 L141.8517 194.2502 L141.4665 195.0572 L140.6543 196.8127 L140.5741 196.9903 L140.5382 197.07 L139.7112 198.9529 L139.3142 199.89 L138.8785 200.9453 L138.1767 202.7099 L138.0766 202.9685 L137.8163 203.6498 L137.3064 205.023 L137.1232 205.5298 L136.5686 207.1099 L136.1512 208.3496 L135.8641 209.2298 L135.2586 211.1695 L135.1939 211.3838 L134.9784 212.1095 L134.5591 213.5729 L134.4436 213.9894 L133.9608 215.7983 L133.7045 216.8094 L133.4003 218.0612 L133.0399 219.6292 L132.879 220.3631 L132.4485 222.4492 L132.3983 222.7054 L132.1404 224.0743 L131.96 225.0898 L131.9291 225.269 L131.5659 227.5181 L131.4809 228.0889 L131.2181 229.9924 L131.1029 230.9089 L130.9188 232.5149 L130.7946 233.7288 L130.6706 235.0882 L130.5553 236.5486 L130.4764 237.7152 L130.3847 239.3685 L130.3395 240.399 L130.2825 242.1885 L130.2633 243.1432 L130.2484 245.0083 L130.2523 245.9521 L130.2825 247.8282 L130.311 248.8304 L130.3847 250.6481 L130.4452 251.7836 L130.5553 253.468 L130.6613 254.8183 L130.7946 256.2879 L130.967 257.9419 L131.1029 259.1078 L131.3716 261.1638 L131.4809 261.9277 L131.886 264.4949 L131.9291 264.7477 L132.1404 265.9424 L132.4485 267.5676 L132.5242 267.9489 L133.0399 270.3875 L133.3033 271.5429 L133.7045 273.2073 L134.2455 275.299 L134.4436 276.0273 L134.9784 277.9072 L135.2586 278.8471 L135.3802 279.2464 L136.1512 281.6671 L136.7477 283.4251 L137.1232 284.4869 L137.8163 286.3669 L138.1767 287.3068"
                  style="fill:none; clip-path:url(#clipPath2);"/>
        </g>
        <g transform="translate(6,5)"
           style="stroke-linecap:butt; text-rendering:optimizeLegibility; color-rendering:optimizeQuality; image-rendering:optimizeQuality; font-family:'Times New Roman'; stroke-linejoin:round; color-interpolation:linearRGB;">
            <path d="M12 245.0083 L484.9937 245.0083"
                  style="fill:none; clip-path:url(#clipPath1);"/>
        </g>
        <g transform="translate(6,5)"
           style="stroke-linecap:butt; text-rendering:optimizeLegibility; color-rendering:optimizeQuality; image-rendering:optimizeQuality; font-family:'Times New Roman'; stroke-linejoin:round; color-interpolation:linearRGB;">
            <path d="M366.25 276.25 Q366.5625 276.5781 366.7188 276.9219 Q366.8438 277.1406 367.0938 278.1094 L367.6562 277.2812 Q367.875 276.9688 368.1875 276.7031 Q368.5156 276.4219 368.75 276.3125 Q368.9062 276.25 369.0938 276.25 Q369.3594 276.25 369.5156 276.4062 Q369.6875 276.5469 369.6875 276.75 Q369.6875 277 369.5938 277.0938 Q369.4219 277.25 369.1875 277.25 Q369.0469 277.25 368.9062 277.1875 Q368.6094 277.0938 368.5 277.0938 Q368.3438 277.0938 368.1406 277.2656 Q367.75 277.5938 367.2031 278.5469 L367.7188 280.7188 Q367.8438 281.2188 367.9219 281.3281 Q368 281.4219 368.0938 281.4219 Q368.2188 281.4219 368.4062 281.2812 Q368.75 280.9844 369 280.5156 L369.2188 280.625 Q368.8125 281.375 368.2031 281.875 Q367.8594 282.1562 367.6094 282.1562 Q367.25 282.1562 367.0469 281.75 Q366.9062 281.5 366.5 279.625 Q365.5 281.3438 364.9062 281.8281 Q364.5156 282.1562 364.1562 282.1562 Q363.9062 282.1562 363.6875 281.9688 Q363.5469 281.8281 363.5469 281.5938 Q363.5469 281.3906 363.6875 281.25 Q363.8281 281.1094 364.0312 281.1094 Q364.2344 281.1094 364.4531 281.3125 Q364.625 281.4531 364.7188 281.4531 Q364.7812 281.4531 364.9062 281.3594 Q365.2031 281.1094 365.7188 280.3125 Q366.2344 279.5156 366.3906 279.1562 Q366 277.6094 365.9688 277.5312 Q365.8281 277.1094 365.5938 276.9375 Q365.3594 276.7656 364.8906 276.7656 Q364.75 276.7656 364.5625 276.7812 L364.5625 276.5469 L366.25 276.25 Z"
                  style="stroke:none; clip-path:url(#clipPath3);"/>
        </g>
        <g transform="translate(6,5)"
           style="text-rendering:optimizeLegibility; font-family:'Times New Roman'; color-interpolation:linearRGB; color-rendering:optimizeQuality; image-rendering:optimizeQuality;">
            <path d="M12 245.0083 L12 250.0083"
                  style="fill:none; clip-path:url(#clipPath1);"/>
        </g>
        <g style="text-rendering:optimizeSpeed; font-family:'Times New Roman'; color-interpolation:linearRGB; color-rendering:optimizeQuality; image-rendering:optimizeQuality;">
            <path d="M19.4531 267.0781 L9.5469 267.0781 L9.5469 265.9219 L19.4531 265.9219 L19.4531 267.0781 Z"
                  style="stroke:none; clip-path:url(#clipPath5);"/>
        </g>
        <g style="text-rendering:optimizeLegibility; font-family:'Times New Roman'; color-interpolation:linearRGB; color-rendering:optimizeQuality; image-rendering:optimizeQuality;">
            <path d="M28.875 269.0938 L28.1875 271 L22.3281 271 L22.3281 270.7344 Q24.9062 268.375 25.9531 266.875 Q27.0156 265.375 27.0156 264.1406 Q27.0156 263.2031 26.4375 262.5938 Q25.8594 261.9844 25.0469 261.9844 Q24.3281 261.9844 23.7344 262.4219 Q23.1562 262.8438 22.875 263.6719 L22.6094 263.6719 Q22.7969 262.3125 23.5469 261.5938 Q24.3125 260.8594 25.4375 260.8594 Q26.6562 260.8594 27.4531 261.6406 Q28.2656 262.4219 28.2656 263.4688 Q28.2656 264.2188 27.9219 264.9844 Q27.375 266.1719 26.1562 267.4844 Q24.3438 269.4844 23.875 269.8906 L26.4688 269.8906 Q27.2656 269.8906 27.5781 269.8438 Q27.9062 269.7812 28.1562 269.6094 Q28.4219 269.4219 28.6094 269.0938 L28.875 269.0938 Z"
                  style="stroke:none; clip-path:url(#clipPath4);"/>
        </g>
        <g transform="translate(6,5)"
           style="text-rendering:optimizeLegibility; font-family:'Times New Roman'; color-interpolation:linearRGB; color-rendering:optimizeQuality; image-rendering:optimizeQuality;">
            <path d="M130.2484 245.0083 L130.2484 250.0083"
                  style="fill:none; clip-path:url(#clipPath1);"/>
        </g>
        <g style="text-rendering:optimizeSpeed; font-family:'Times New Roman'; color-interpolation:linearRGB; color-rendering:optimizeQuality; image-rendering:optimizeQuality;">
            <path d="M137.4531 267.0781 L127.5469 267.0781 L127.5469 265.9219 L137.4531 265.9219 L137.4531 267.0781 Z"
                  style="stroke:none; clip-path:url(#clipPath6);"/>
        </g>
        <g style="text-rendering:optimizeLegibility; font-family:'Times New Roman'; color-interpolation:linearRGB; color-rendering:optimizeQuality; image-rendering:optimizeQuality;">
            <path d="M141.7656 262.0469 L144.1719 260.8594 L144.4219 260.8594 L144.4219 269.25 Q144.4219 270.0781 144.4844 270.2969 Q144.5625 270.5 144.7812 270.6094 Q145 270.7188 145.6719 270.7344 L145.6719 271 L141.9375 271 L141.9375 270.7344 Q142.6406 270.7188 142.8438 270.6094 Q143.0469 270.5 143.125 270.3281 Q143.2031 270.1406 143.2031 269.25 L143.2031 263.8906 Q143.2031 262.7969 143.1406 262.5 Q143.0781 262.2656 142.9375 262.1562 Q142.8125 262.0469 142.625 262.0469 Q142.3438 262.0469 141.875 262.2656 L141.7656 262.0469 Z"
                  style="stroke:none; clip-path:url(#clipPath4);"/>
        </g>
        <g transform="translate(6,5)"
           style="text-rendering:optimizeLegibility; font-family:'Times New Roman'; color-interpolation:linearRGB; color-rendering:optimizeQuality; image-rendering:optimizeQuality;">
            <path d="M248.4969 245.0083 L248.4969 250.0083"
                  style="fill:none; clip-path:url(#clipPath1);"/>
            <path d="M243.5469 264.0938 Q243.5469 262.3906 244.0469 261.1719 Q244.5625 259.9375 245.4219 259.3438 Q246.0781 258.8594 246.7812 258.8594 Q247.9219 258.8594 248.8281 260.0312 Q249.9688 261.4688 249.9688 263.9375 Q249.9688 265.6719 249.4688 266.875 Q248.9688 268.0781 248.1875 268.625 Q247.4219 269.1719 246.7031 269.1719 Q245.2812 269.1719 244.3438 267.5 Q243.5469 266.0781 243.5469 264.0938 ZM244.9844 264.2812 Q244.9844 266.3281 245.4844 267.625 Q245.9062 268.7188 246.7344 268.7188 Q247.125 268.7188 247.5469 268.3594 Q247.9688 268 248.1875 267.1719 Q248.5312 265.9062 248.5312 263.6094 Q248.5312 261.9219 248.1719 260.7812 Q247.9219 259.9375 247.5 259.5938 Q247.2031 259.3438 246.7656 259.3438 Q246.2812 259.3438 245.8906 259.7969 Q245.3594 260.4062 245.1719 261.7188 Q244.9844 263.0156 244.9844 264.2812 Z"
                  style="clip-path:url(#clipPath4); stroke:none;"
                  transform="translate(-6,-5)"/>
        </g>
        <g transform="translate(6,5)"
           style="text-rendering:optimizeLegibility; font-family:'Times New Roman'; color-interpolation:linearRGB; color-rendering:optimizeQuality; image-rendering:optimizeQuality;">
            <path d="M366.7453 245.0083 L366.7453 250.0083"
                  style="fill:none; clip-path:url(#clipPath1);"/>
            <path d="M370.7656 262.0469 L373.1719 260.8594 L373.4219 260.8594 L373.4219 269.25 Q373.4219 270.0781 373.4844 270.2969 Q373.5625 270.5 373.7812 270.6094 Q374 270.7188 374.6719 270.7344 L374.6719 271 L370.9375 271 L370.9375 270.7344 Q371.6406 270.7188 371.8438 270.6094 Q372.0469 270.5 372.125 270.3281 Q372.2031 270.1406 372.2031 269.25 L372.2031 263.8906 Q372.2031 262.7969 372.1406 262.5 Q372.0781 262.2656 371.9375 262.1562 Q371.8125 262.0469 371.625 262.0469 Q371.3438 262.0469 370.875 262.2656 L370.7656 262.0469 Z"
                  style="clip-path:url(#clipPath4); stroke:none;"
                  transform="translate(-6,-5)"/>
        </g>
        <g transform="translate(6,5)"
           style="text-rendering:optimizeLegibility; font-family:'Times New Roman'; color-interpolation:linearRGB; color-rendering:optimizeQuality; image-rendering:optimizeQuality;">
            <path d="M484.9937 245.0083 L484.9937 250.0083"
                  style="fill:none; clip-path:url(#clipPath1);"/>
            <path d="M493.875 269.0938 L493.1875 271 L487.3281 271 L487.3281 270.7344 Q489.9062 268.375 490.9531 266.875 Q492.0156 265.375 492.0156 264.1406 Q492.0156 263.2031 491.4375 262.5938 Q490.8594 261.9844 490.0469 261.9844 Q489.3281 261.9844 488.7344 262.4219 Q488.1562 262.8438 487.875 263.6719 L487.6094 263.6719 Q487.7969 262.3125 488.5469 261.5938 Q489.3125 260.8594 490.4375 260.8594 Q491.6562 260.8594 492.4531 261.6406 Q493.2656 262.4219 493.2656 263.4688 Q493.2656 264.2188 492.9219 264.9844 Q492.375 266.1719 491.1562 267.4844 Q489.3438 269.4844 488.875 269.8906 L491.4688 269.8906 Q492.2656 269.8906 492.5781 269.8438 Q492.9062 269.7812 493.1562 269.6094 Q493.4219 269.4219 493.6094 269.0938 L493.875 269.0938 Z"
                  style="clip-path:url(#clipPath4); stroke:none;"
                  transform="translate(-6,-5)"/>
        </g>
        <g transform="translate(6,5)"
           style="text-rendering:optimizeLegibility; font-family:'Times New Roman'; color-interpolation:linearRGB; color-rendering:optimizeQuality; image-rendering:optimizeQuality;">
            <path d="M71.1242 245.0083 L71.1242 247.5083"
                  style="fill:none; clip-path:url(#clipPath1);"/>
        </g>
        <g transform="translate(6,5)"
           style="text-rendering:optimizeLegibility; font-family:'Times New Roman'; color-interpolation:linearRGB; color-rendering:optimizeQuality; image-rendering:optimizeQuality;">
            <path d="M189.3727 245.0083 L189.3727 247.5083"
                  style="fill:none; clip-path:url(#clipPath1);"/>
        </g>
        <g transform="translate(6,5)"
           style="text-rendering:optimizeLegibility; font-family:'Times New Roman'; color-interpolation:linearRGB; color-rendering:optimizeQuality; image-rendering:optimizeQuality;">
            <path d="M307.6211 245.0083 L307.6211 247.5083"
                  style="fill:none; clip-path:url(#clipPath1);"/>
        </g>
        <g transform="translate(6,5)"
           style="text-rendering:optimizeLegibility; font-family:'Times New Roman'; color-interpolation:linearRGB; color-rendering:optimizeQuality; image-rendering:optimizeQuality;">
            <path d="M425.8695 245.0083 L425.8695 247.5083"
                  style="fill:none; clip-path:url(#clipPath1);"/>
        </g>
        <g transform="translate(6,5)"
           style="stroke-linecap:butt; text-rendering:optimizeLegibility; color-rendering:optimizeQuality; image-rendering:optimizeQuality; font-family:'Times New Roman'; stroke-linejoin:round; color-interpolation:linearRGB;">
            <path d="M248.4969 480 L248.4969 10.0167"
                  style="fill:none; clip-path:url(#clipPath1);"/>
        </g>
        <g transform="translate(6,5)"
           style="stroke-linecap:butt; text-rendering:optimizeLegibility; color-rendering:optimizeQuality; image-rendering:optimizeQuality; font-family:'Times New Roman'; stroke-linejoin:round; color-interpolation:linearRGB;">
            <path d="M204.0625 126.25 Q204.2812 126.625 204.3594 126.9531 Q204.4531 127.2656 204.5312 128.2031 L204.8125 131.3281 Q205.1875 130.875 205.9219 129.875 Q206.2656 129.3906 206.7812 128.5625 Q207.0938 128.0625 207.1562 127.8594 Q207.2031 127.75 207.2031 127.6406 Q207.2031 127.5781 207.1562 127.5312 Q207.1094 127.4844 206.9219 127.4219 Q206.7344 127.3594 206.6094 127.2031 Q206.4844 127.0469 206.4844 126.8281 Q206.4844 126.5781 206.6406 126.4219 Q206.7969 126.25 207.0156 126.25 Q207.2969 126.25 207.4844 126.4844 Q207.6875 126.7188 207.6875 127.125 Q207.6875 127.625 207.3438 128.2812 Q207.0156 128.9219 206.0312 130.25 Q205.0469 131.5781 203.6562 133.1562 Q202.7031 134.2344 202.2344 134.5156 Q201.7812 134.8125 201.4531 134.8125 Q201.25 134.8125 201.1094 134.6562 Q200.9531 134.5 200.9531 134.3125 Q200.9531 134.0625 201.1562 133.8594 Q201.3594 133.6562 201.6094 133.6562 Q201.7344 133.6562 201.8125 133.7188 Q201.8594 133.75 201.9219 133.8906 Q201.9844 134.0469 202.0312 134.0938 Q202.0781 134.125 202.1094 134.125 Q202.1562 134.125 202.25 134.0625 Q202.5938 133.8438 203.0625 133.375 Q203.6719 132.75 203.9688 132.3594 L203.6094 128.3438 Q203.5156 127.3438 203.3281 127.125 Q203.1562 126.9062 202.75 126.9062 Q202.6094 126.9062 202.2656 126.9531 L202.2031 126.7188 L204.0625 126.25 Z"
                  style="stroke:none; clip-path:url(#clipPath7);"/>
        </g>
        <g transform="translate(6,5)"
           style="text-rendering:optimizeLegibility; font-family:'Times New Roman'; color-interpolation:linearRGB; color-rendering:optimizeQuality; image-rendering:optimizeQuality;">
            <path d="M248.4969 480 L243.4969 480"
                  style="fill:none; clip-path:url(#clipPath1);"/>
        </g>
        <g style="text-rendering:optimizeSpeed; font-family:'Times New Roman'; color-interpolation:linearRGB; color-rendering:optimizeQuality; image-rendering:optimizeQuality;">
            <path d="M236.4531 487.0781 L226.5469 487.0781 L226.5469 485.9219 L236.4531 485.9219 L236.4531 487.0781 Z"
                  style="stroke:none; clip-path:url(#clipPath8);"/>
        </g>
        <g style="text-rendering:optimizeLegibility; font-family:'Times New Roman'; color-interpolation:linearRGB; color-rendering:optimizeQuality; image-rendering:optimizeQuality;">
            <path d="M245.875 489.0938 L245.1875 491 L239.3281 491 L239.3281 490.7344 Q241.9062 488.375 242.9531 486.875 Q244.0156 485.375 244.0156 484.1406 Q244.0156 483.2031 243.4375 482.5938 Q242.8594 481.9844 242.0469 481.9844 Q241.3281 481.9844 240.7344 482.4219 Q240.1562 482.8438 239.875 483.6719 L239.6094 483.6719 Q239.7969 482.3125 240.5469 481.5938 Q241.3125 480.8594 242.4375 480.8594 Q243.6562 480.8594 244.4531 481.6406 Q245.2656 482.4219 245.2656 483.4688 Q245.2656 484.2188 244.9219 484.9844 Q244.375 486.1719 243.1562 487.4844 Q241.3438 489.4844 240.875 489.8906 L243.4688 489.8906 Q244.2656 489.8906 244.5781 489.8438 Q244.9062 489.7812 245.1562 489.6094 Q245.4219 489.4219 245.6094 489.0938 L245.875 489.0938 Z"
                  style="stroke:none; clip-path:url(#clipPath4);"/>
        </g>
        <g transform="translate(6,5)"
           style="text-rendering:optimizeLegibility; font-family:'Times New Roman'; color-interpolation:linearRGB; color-rendering:optimizeQuality; image-rendering:optimizeQuality;">
            <path d="M248.4969 362.5042 L243.4969 362.5042"
                  style="fill:none; clip-path:url(#clipPath1);"/>
        </g>
        <g style="text-rendering:optimizeSpeed; font-family:'Times New Roman'; color-interpolation:linearRGB; color-rendering:optimizeQuality; image-rendering:optimizeQuality;">
            <path d="M236.4531 369.0781 L226.5469 369.0781 L226.5469 367.9219 L236.4531 367.9219 L236.4531 369.0781 Z"
                  style="stroke:none; clip-path:url(#clipPath9);"/>
        </g>
        <g style="text-rendering:optimizeLegibility; font-family:'Times New Roman'; color-interpolation:linearRGB; color-rendering:optimizeQuality; image-rendering:optimizeQuality;">
            <path d="M240.7656 364.0469 L243.1719 362.8594 L243.4219 362.8594 L243.4219 371.25 Q243.4219 372.0781 243.4844 372.2969 Q243.5625 372.5 243.7812 372.6094 Q244 372.7188 244.6719 372.7344 L244.6719 373 L240.9375 373 L240.9375 372.7344 Q241.6406 372.7188 241.8438 372.6094 Q242.0469 372.5 242.125 372.3281 Q242.2031 372.1406 242.2031 371.25 L242.2031 365.8906 Q242.2031 364.7969 242.1406 364.5 Q242.0781 364.2656 241.9375 364.1562 Q241.8125 364.0469 241.625 364.0469 Q241.3438 364.0469 240.875 364.2656 L240.7656 364.0469 Z"
                  style="stroke:none; clip-path:url(#clipPath4);"/>
        </g>
        <g transform="translate(6,5)"
           style="text-rendering:optimizeLegibility; font-family:'Times New Roman'; color-interpolation:linearRGB; color-rendering:optimizeQuality; image-rendering:optimizeQuality;">
            <path d="M248.4969 245.0083 L243.4969 245.0083"
                  style="fill:none; clip-path:url(#clipPath1);"/>
        </g>
        <g transform="translate(6,5)"
           style="text-rendering:optimizeLegibility; font-family:'Times New Roman'; color-interpolation:linearRGB; color-rendering:optimizeQuality; image-rendering:optimizeQuality;">
            <path d="M248.4969 127.5125 L243.4969 127.5125"
                  style="fill:none; clip-path:url(#clipPath1);"/>
            <path d="M240.7656 129.0469 L243.1719 127.8594 L243.4219 127.8594 L243.4219 136.25 Q243.4219 137.0781 243.4844 137.2969 Q243.5625 137.5 243.7812 137.6094 Q244 137.7188 244.6719 137.7344 L244.6719 138 L240.9375 138 L240.9375 137.7344 Q241.6406 137.7188 241.8438 137.6094 Q242.0469 137.5 242.125 137.3281 Q242.2031 137.1406 242.2031 136.25 L242.2031 130.8906 Q242.2031 129.7969 242.1406 129.5 Q242.0781 129.2656 241.9375 129.1562 Q241.8125 129.0469 241.625 129.0469 Q241.3438 129.0469 240.875 129.2656 L240.7656 129.0469 Z"
                  style="clip-path:url(#clipPath4); stroke:none;"
                  transform="translate(-6,-5)"/>
        </g>
        <g transform="translate(6,5)"
           style="text-rendering:optimizeLegibility; font-family:'Times New Roman'; color-interpolation:linearRGB; color-rendering:optimizeQuality; image-rendering:optimizeQuality;">
            <path d="M248.4969 10.0167 L243.4969 10.0167"
                  style="fill:none; clip-path:url(#clipPath1);"/>
            <path d="M245.875 19.0938 L245.1875 21 L239.3281 21 L239.3281 20.7344 Q241.9062 18.375 242.9531 16.875 Q244.0156 15.375 244.0156 14.1406 Q244.0156 13.2031 243.4375 12.5938 Q242.8594 11.9844 242.0469 11.9844 Q241.3281 11.9844 240.7344 12.4219 Q240.1562 12.8438 239.875 13.6719 L239.6094 13.6719 Q239.7969 12.3125 240.5469 11.5938 Q241.3125 10.8594 242.4375 10.8594 Q243.6562 10.8594 244.4531 11.6406 Q245.2656 12.4219 245.2656 13.4688 Q245.2656 14.2188 244.9219 14.9844 Q244.375 16.1719 243.1562 17.4844 Q241.3438 19.4844 240.875 19.8906 L243.4688 19.8906 Q244.2656 19.8906 244.5781 19.8438 Q244.9062 19.7812 245.1562 19.6094 Q245.4219 19.4219 245.6094 19.0938 L245.875 19.0938 Z"
                  style="clip-path:url(#clipPath4); stroke:none;"
                  transform="translate(-6,-5)"/>
        </g>
        <g transform="translate(6,5)"
           style="text-rendering:optimizeLegibility; font-family:'Times New Roman'; color-interpolation:linearRGB; color-rendering:optimizeQuality; image-rendering:optimizeQuality;">
            <path d="M248.4969 421.2521 L245.9969 421.2521"
                  style="fill:none; clip-path:url(#clipPath1);"/>
        </g>
        <g transform="translate(6,5)"
           style="text-rendering:optimizeLegibility; font-family:'Times New Roman'; color-interpolation:linearRGB; color-rendering:optimizeQuality; image-rendering:optimizeQuality;">
            <path d="M248.4969 303.7563 L245.9969 303.7563"
                  style="fill:none; clip-path:url(#clipPath1);"/>
        </g>
        <g transform="translate(6,5)"
           style="text-rendering:optimizeLegibility; font-family:'Times New Roman'; color-interpolation:linearRGB; color-rendering:optimizeQuality; image-rendering:optimizeQuality;">
            <path d="M248.4969 186.2604 L245.9969 186.2604"
                  style="fill:none; clip-path:url(#clipPath1);"/>
        </g>
        <g transform="translate(6,5)"
           style="text-rendering:optimizeLegibility; font-family:'Times New Roman'; color-interpolation:linearRGB; color-rendering:optimizeQuality; image-rendering:optimizeQuality;">
            <path d="M248.4969 68.7646 L245.9969 68.7646"
                  style="fill:none; clip-path:url(#clipPath1);"/>
        </g>
    </g>
</svg>
